<?xml version="1.0" standalone="no"?>
<!DOCTYPE svg PUBLIC "-//W3C//DTD SVG 20010904//EN"
 "http://www.w3.org/TR/2001/REC-SVG-20010904/DTD/svg10.dtd">
<svg version="1.0" xmlns="http://www.w3.org/2000/svg"
 width="2816.000000pt" height="1536.000000pt" viewBox="0 0 2816.000000 1536.000000"
 preserveAspectRatio="xMidYMid meet">

<g transform="translate(0.000000,1536.000000) scale(0.100000,-0.100000)"
fill="#000000" stroke="none">
<path d="M13640 11310 c-416 -33 -808 -143 -1191 -335 -469 -236 -934 -658
-1216 -1105 -155 -245 -245 -433 -335 -700 -97 -284 -137 -528 -145 -866 -6
-258 5 -419 43 -644 111 -662 501 -1340 1034 -1798 162 -139 423 -318 600
-411 365 -191 798 -308 1263 -342 466 -35 1062 83 1502 296 201 97 500 289
623 400 l51 46 98 -92 c54 -50 104 -99 111 -108 10 -12 11 -38 6 -101 -11
-144 25 -243 132 -365 28 -33 301 -310 606 -615 387 -388 570 -565 608 -587
193 -113 454 -73 609 93 126 134 165 293 119 484 -30 125 -32 128 -651 746
-345 345 -605 597 -638 618 -92 60 -151 78 -269 83 -58 2 -114 6 -125 8 -11 2
-65 54 -119 115 l-98 111 31 37 c58 68 265 386 330 505 281 521 406 1162 340
1747 -59 531 -225 983 -520 1420 -118 174 -198 270 -368 441 -179 179 -307
284 -509 417 -245 161 -442 255 -747 357 -304 102 -541 142 -880 150 -104 2
-237 0 -295 -5z m645 -208 c328 -51 687 -174 994 -342 181 -98 331 -206 331
-237 0 -22 -65 -83 -88 -83 -10 0 -34 10 -53 23 -268 179 -457 275 -712 363
-317 109 -552 148 -892 148 -330 1 -553 -34 -859 -134 -477 -155 -843 -394
-1206 -787 -85 -92 -119 -123 -137 -123 -30 0 -83 51 -83 79 0 33 166 218 330
366 175 160 372 300 570 408 320 173 747 304 1095 336 166 16 560 6 710 -17z
m1661 -855 c77 -79 152 -162 168 -185 l28 -41 -22 -36 c-25 -40 -56 -65 -83
-65 -10 0 -63 46 -118 103 l-99 102 -47 -50 c-182 -197 -363 -406 -363 -421 0
-5 47 -72 104 -148 221 -295 335 -542 400 -868 104 -521 19 -1024 -251 -1479
-177 -298 -379 -511 -678 -712 -350 -235 -761 -350 -1195 -334 -218 8 -473 58
-651 126 -187 72 -450 224 -579 335 -45 38 -57 44 -65 33 -6 -8 -114 -136
-242 -283 -127 -148 -242 -282 -256 -298 l-24 -30 -29 19 c-44 28 -261 250
-334 342 -36 45 -80 107 -99 137 l-34 57 22 23 c13 13 43 35 67 48 l45 23 27
-31 c15 -17 56 -73 92 -124 36 -52 97 -127 135 -167 l70 -73 185 216 c102 118
198 231 214 250 l29 34 -59 62 c-206 216 -362 500 -462 844 -64 216 -77 320
-76 589 1 281 18 388 100 633 107 321 262 576 497 819 412 425 988 653 1587
630 170 -7 315 -26 430 -58 289 -78 590 -233 798 -409 40 -34 79 -59 86 -57 8
3 62 63 122 134 266 315 392 452 415 453 4 0 69 -64 145 -143z m388 -484 c51
-70 88 -150 81 -173 -7 -24 -46 -51 -101 -73 -54 -21 -60 -16 -123 98 -48 85
-50 90 -33 108 23 26 114 87 129 87 7 0 28 -21 47 -47z m-4818 1 c25 -15 48
-33 51 -42 8 -20 -67 -170 -96 -193 -34 -27 -70 -24 -124 11 -38 24 -47 35
-47 58 0 26 62 144 99 185 20 23 55 17 117 -19z m-239 -415 c87 -37 87 -36 45
-152 -20 -56 -41 -106 -46 -110 -27 -19 -160 26 -172 58 -8 20 43 168 67 199
25 31 43 32 106 5z m5282 -16 c31 -63 71 -182 65 -197 -6 -15 -51 -36 -114
-53 -59 -17 -74 -4 -109 92 -45 124 -44 130 32 165 84 40 102 39 126 -7z
m-5409 -443 c73 -19 75 -23 51 -136 -25 -124 -36 -135 -118 -123 -90 14 -103
22 -103 66 0 60 28 174 47 195 18 20 38 20 123 -2z m5559 -12 c5 -18 17 -70
26 -116 13 -64 14 -86 5 -97 -27 -33 -157 -47 -180 -20 -6 8 -23 56 -35 107
-22 86 -23 94 -8 110 20 22 94 46 145 47 33 1 37 -2 47 -31z m-5572 -474 c11
-15 13 -40 8 -114 -8 -117 -18 -130 -107 -130 -102 0 -114 19 -102 158 9 109
15 116 113 110 57 -4 77 -9 88 -24z m5632 13 c6 -8 13 -58 17 -113 8 -132 3
-139 -101 -139 -62 0 -79 3 -90 18 -14 20 -30 183 -20 210 9 22 55 35 126 36
36 1 61 -4 68 -12z m-26 -472 c25 -11 31 -46 18 -122 -26 -154 -32 -158 -173
-122 -54 14 -59 31 -43 137 15 101 18 110 46 121 22 7 124 -1 152 -14z m-5592
-15 c12 -17 20 -53 24 -112 7 -84 7 -86 -18 -102 -27 -19 -130 -38 -152 -29
-18 6 -41 84 -51 166 -10 85 16 108 120 104 50 -2 62 -6 77 -27z m99 -452 c11
-18 27 -66 36 -106 16 -71 16 -75 -3 -100 -22 -30 -72 -50 -124 -51 -41 -1
-51 13 -90 126 -35 103 -27 120 66 149 69 22 93 18 115 -18z m5334 16 c34 -9
67 -23 75 -29 20 -19 6 -99 -32 -175 l-32 -65 -45 0 c-25 1 -63 10 -85 20 -39
20 -40 21 -39 70 2 59 37 165 61 183 21 15 25 15 97 -4z m-5182 -451 c9 -10
32 -51 53 -90 49 -98 46 -119 -25 -160 -61 -37 -90 -41 -113 -15 -28 31 -80
153 -81 191 -1 34 2 37 54 63 65 32 91 35 112 11z m5022 -6 c33 -12 64 -29 69
-38 7 -11 -3 -40 -37 -109 -56 -113 -62 -120 -93 -120 -31 0 -121 48 -134 71
-10 19 4 66 41 140 44 88 59 93 154 56z m-212 -447 l32 -27 -34 -54 c-134
-209 -448 -516 -722 -707 -742 -517 -1685 -650 -2543 -359 -316 107 -646 278
-753 390 -33 34 -34 35 -17 61 9 14 33 35 51 47 l35 21 107 -65 c379 -231 756
-368 1163 -423 169 -23 502 -23 664 0 463 65 865 223 1244 488 212 148 471
403 606 598 21 30 45 60 52 66 19 16 73 -1 115 -36z m520 -821 c22 -11 84 -62
137 -112 170 -162 978 -975 1007 -1012 25 -33 26 -39 15 -75 -13 -44 -46 -74
-69 -61 -8 4 -276 269 -596 587 -319 318 -596 591 -613 607 -38 32 -42 60 -10
75 35 17 84 14 129 -9z"/>
<path d="M13847 10075 c-37 -22 -51 -58 -36 -102 15 -47 47 -59 172 -67 340
-19 679 -160 964 -400 340 -285 564 -743 590 -1205 5 -98 9 -117 29 -140 32
-37 97 -36 130 2 21 25 24 38 24 110 -1 370 -164 813 -413 1122 -327 405 -819
662 -1322 690 -90 5 -115 3 -138 -10z"/>
<path d="M14051 9233 c-6 -13 -34 -85 -62 -160 -28 -76 -55 -144 -61 -150 -7
-9 -48 -13 -140 -13 -140 0 -150 3 -237 65 -68 49 -150 85 -194 85 -51 0 -113
-33 -134 -73 -17 -30 -18 -90 -21 -860 l-2 -828 22 -40 c14 -26 37 -46 66 -60
77 -38 102 -28 401 149 146 88 309 184 361 214 549 321 719 424 741 450 57 64
60 165 7 215 -13 12 -120 79 -238 148 -118 70 -220 132 -227 138 -6 7 -23 46
-37 87 -19 57 -22 78 -13 88 6 8 55 45 108 83 54 38 107 82 119 99 l21 30 -43
1 c-24 1 -101 4 -172 8 l-129 6 -58 160 c-32 88 -60 164 -62 170 -2 5 -9 0
-16 -12z m-161 -836 c26 -65 49 -120 51 -122 2 -1 63 -5 134 -8 72 -3 132 -6
133 -6 2 -1 -44 -42 -102 -93 -58 -50 -106 -96 -106 -103 0 -6 16 -62 36 -124
19 -62 34 -114 32 -116 -2 -2 -54 26 -116 62 l-113 65 -117 -70 c-64 -39 -118
-69 -120 -67 -2 2 12 55 32 119 20 63 36 121 36 129 0 8 -45 52 -100 98 -54
46 -99 87 -100 92 0 4 44 7 99 7 162 0 151 -8 207 136 27 68 53 123 57 121 5
-1 30 -56 57 -120z"/>
</g>
</svg>
